<?xml version="1.0" encoding="utf-8"?>
<!-- Generator: Adobe Illustrator 25.0.0, SVG Export Plug-In . SVG Version: 6.00 Build 0)  -->
<svg version="1.1" id="Layer_1" xmlns="http://www.w3.org/2000/svg" xmlns:xlink="http://www.w3.org/1999/xlink" x="0px" y="0px"
	 viewBox="0 0 128 128" style="enable-background:new 0 0 128 128;" xml:space="preserve">
<style type="text/css">
	.st0{fill:#FFFFFF;}
</style>
<path class="st0" d="M112.9,34.9c-0.7-2.9-2.8-5.2-5.7-6.1C99.5,26.3,82.9,24,64,24s-35.5,2.3-43.2,4.8c-2.9,0.9-5.1,3.2-5.7,6.1
	C13.8,40.3,12,50.4,12,64s1.8,23.7,3.1,29.1c0.7,2.9,2.8,5.2,5.7,6.1c7.7,2.4,24.3,4.8,43.2,4.8s35.5-2.3,43.2-4.8
	c2.9-0.9,5.1-3.2,5.7-6.1c1.3-5.4,3.1-15.5,3.1-29.1S114.2,40.3,112.9,34.9z M54,80V48l29.7,16L54,80z"/>
</svg>
