<?xml version="1.0" encoding="utf-8"?>
<!-- Generator: Adobe Illustrator 25.0.0, SVG Export Plug-In . SVG Version: 6.00 Build 0)  -->
<svg version="1.1" id="Layer_1" xmlns="http://www.w3.org/2000/svg" xmlns:xlink="http://www.w3.org/1999/xlink" x="0px" y="0px"
	 viewBox="0 0 165.3 52.4" style="enable-background:new 0 0 165.3 52.4;" xml:space="preserve">
<style type="text/css">
	.st0{display:none;fill:#FFFFFF;}
	.st1{fill:#1B1B1B;}
</style>
<path class="st0" d="M0,71.5L14,1.3h23.2c3.3,0,6.5,0.3,9.7,1c2.8,0.6,5.5,1.7,7.9,3.3c2.2,1.5,4.1,3.6,5.3,5.9c1.4,2.8,2,5.9,1.9,9
	c0.1,4.5-0.8,8.9-2.7,13C57.6,37,55.1,40,52,42.2c-3.2,2.3-6.7,4-10.5,4.9c-4.1,1-8.3,1.5-12.6,1.5h-7.1l-4.5,22.9L0,71.5z M24.6,35
	H31c4.5,0,7.9-1,10.3-3c2.4-2,3.6-4.9,3.6-8.8c0-2.8-0.9-4.9-2.7-6.2s-4.3-2-7.5-2h-6.3L24.6,35z"/>
<path class="st0" d="M64.4,71.5l14-70.2h17.3l-14,70.2H64.4z"/>
<path class="st0" d="M98.8,71.5l14-70.2h16.6l9.8,33.3l3.5,15.8h0.4c0.1-1.9,0.3-3.9,0.4-6.1s0.3-4.5,0.5-6.8s0.5-4.6,0.8-7
	s0.6-4.6,1.1-6.6l4.5-22.5h16.4l-14,70.2h-16.6l-9.8-33.2l-3.2-15.8h-0.4c-0.4,4-0.7,8.3-1.1,13c-0.4,4.5-1,8.9-1.9,13.3l-4.5,22.7
	H98.8z"/>
<g>
	<path class="st1" d="M10.7,51H0.6V0.6h20.2c1.9,0,3.6,0.2,5.3,0.7c1.7,0.5,3.3,1.2,4.8,2c1.5,0.9,2.8,1.9,4.1,3.2s2.3,2.6,3.2,4.1
		c0.9,1.5,1.6,3.1,2,4.8c0.5,1.7,0.7,3.5,0.7,5.3c0,2.8-0.5,5.4-1.6,7.8C38.3,31,36.9,33.2,35,35s-4,3.3-6.4,4.3
		c-2.4,1.1-5.1,1.6-7.8,1.6H10.7V51z M10.7,10.7v20.2h10.1c1.4,0,2.7-0.3,3.9-0.8c1.2-0.5,2.3-1.2,3.2-2.2s1.6-2,2.2-3.2
		s0.8-2.5,0.8-3.9c0-1.4-0.3-2.7-0.8-3.9s-1.2-2.3-2.2-3.2s-2-1.6-3.2-2.2c-1.2-0.5-2.5-0.8-3.9-0.8H10.7z"/>
	<path class="st1" d="M60.9,51H50.8V0.6h10.1V51z"/>
	<path class="st1" d="M111.3,51h-10.8L81.1,17.8V51H71V0.6h10.8l19.4,33.2V0.6h10.1V51z"/>
	<path class="st1" d="M164.8,45.9c-2.3,2-5,3.5-7.8,4.6s-5.9,1.6-9,1.6c-2.4,0-4.7-0.3-6.9-0.9s-4.3-1.5-6.2-2.6s-3.7-2.5-5.3-4.1
		c-1.6-1.6-3-3.3-4.1-5.3s-2-4-2.6-6.2S122,28.4,122,26s0.3-4.7,0.9-6.9c0.6-2.2,1.5-4.3,2.6-6.2s2.5-3.7,4.1-5.3
		c1.6-1.6,3.4-2.9,5.3-4.1s4-2,6.2-2.6c2.2-0.6,4.5-0.9,6.9-0.9c3.1,0,6.1,0.5,9,1.6c2.9,1.1,5.5,2.6,7.8,4.6l-5.3,8.8
		c-1.5-1.5-3.3-2.8-5.3-3.6S150.2,10,148,10s-4.3,0.4-6.2,1.3s-3.6,2-5.1,3.4s-2.6,3.1-3.4,5.1s-1.3,4-1.3,6.2
		c0,2.2,0.4,4.3,1.3,6.3s2,3.6,3.4,5.1s3.1,2.6,5.1,3.4s4,1.3,6.2,1.3c1.3,0,2.5-0.2,3.7-0.5s2.3-0.7,3.4-1.3V26h9.7V45.9z"/>
</g>
</svg>
