<svg id="Layer_1" data-name="Layer 1" xmlns="http://www.w3.org/2000/svg" viewBox="0 0 230.69 72.79"><defs><style>.cls-1{fill:#fff;}</style></defs><path class="cls-1" d="M2.81,165.24l14-70.2H40a43.58,43.58,0,0,1,9.72,1,22.88,22.88,0,0,1,7.88,3.29,16.33,16.33,0,0,1,5.3,5.94,19.06,19.06,0,0,1,1.94,9,28.6,28.6,0,0,1-2.7,13A24.07,24.07,0,0,1,54.86,136a29.45,29.45,0,0,1-10.53,4.86,51.12,51.12,0,0,1-12.58,1.52H24.62l-4.53,22.89Zm24.62-36.5H33.8q6.71,0,10.32-3t3.62-8.85c0-2.81-.89-4.88-2.65-6.21s-4.27-2-7.51-2H31.32Z" transform="translate(-2.81 -93.75)"/><path class="cls-1" d="M67.18,165.24l14-70.2H98.5l-14,70.2Z" transform="translate(-2.81 -93.75)"/><path class="cls-1" d="M101.58,165.24l14-70.2h16.63L142,128.31l3.46,15.76h.43c.14-1.87.29-3.92.43-6.15s.33-4.5.54-6.81.47-4.62.76-7,.65-4.55,1.08-6.64L153.2,95h16.42l-14,70.2H139L129.23,132,126,116.21h-.43q-.54,6-1.14,13a113.94,113.94,0,0,1-1.89,13.34L118,165.24Z" transform="translate(-2.81 -93.75)"/><path class="cls-1" d="M202.82,166.54a33,33,0,0,1-11.82-2,24.81,24.81,0,0,1-9-5.78,25.24,25.24,0,0,1-5.72-9.34,37.23,37.23,0,0,1-2-12.69,48,48,0,0,1,3-17.28,42.47,42.47,0,0,1,8.27-13.61,37.36,37.36,0,0,1,12.31-8.91,36.82,36.82,0,0,1,15.28-3.18,23.57,23.57,0,0,1,12.1,3,22.42,22.42,0,0,1,8.2,8.47l-11.66,9.08a13.83,13.83,0,0,0-4.16-4.27,10.06,10.06,0,0,0-5.34-1.35,15.81,15.81,0,0,0-7.94,2.11,21.08,21.08,0,0,0-6.48,5.72,27.72,27.72,0,0,0-4.32,8.59A34.81,34.81,0,0,0,192,135.65q0,7.66,3.19,11.93t10.64,4.27a12.69,12.69,0,0,0,3.18-.43,8.27,8.27,0,0,0,2.86-1.3l2.6-11.66H204.12l2.59-14H232.2l-6.7,34.77a36.58,36.58,0,0,1-10,5.24A37.22,37.22,0,0,1,202.82,166.54Z" transform="translate(-2.81 -93.75)"/></svg>