<?xml version="1.0" encoding="utf-8"?>
<!-- Generator: Adobe Illustrator 25.0.0, SVG Export Plug-In . SVG Version: 6.00 Build 0)  -->
<svg version="1.1" id="Layer_1" xmlns="http://www.w3.org/2000/svg" xmlns:xlink="http://www.w3.org/1999/xlink" x="0px" y="0px"
	 viewBox="0 0 90 90" style="enable-background:new 0 0 90 90;" xml:space="preserve">
<style type="text/css">
	.st0{fill:#FFFFFF;}
</style>
<path class="st0" d="M45,9C25.1,9,9,25.1,9,45s16.1,36,36,36s36-16.1,36-36S64.9,9,45,9z M31.5,25.2c2.5,0,4.2,1.7,4.2,3.9
	s-1.7,3.9-4.5,3.9c-2.5,0-4.2-1.7-4.2-3.9S28.7,25.2,31.5,25.2z M36,60h-9V36h9V60z M66,60h-8.5V46.9c0-3.6-2.3-4.5-3.1-4.5
	c-0.8,0-3.7,0.6-3.7,4.5c0,0.6,0,13.1,0,13.1H42V36h8.8v3.3c1.1-2,3.4-3.3,7.6-3.3S66,39.3,66,46.9V60z"/>
</svg>
