<?xml version="1.0" encoding="utf-8"?>
<!-- Generator: Adobe Illustrator 25.0.0, SVG Export Plug-In . SVG Version: 6.00 Build 0)  -->
<svg version="1.1" id="Layer_1" xmlns="http://www.w3.org/2000/svg" xmlns:xlink="http://www.w3.org/1999/xlink" x="0px" y="0px"
	 viewBox="0 0 2500 1024" style="enable-background:new 0 0 2500 1024;" xml:space="preserve">
<style type="text/css">
	.st0{fill:#0190FF;}
	.st1{fill:#2B01BE;}
</style>
<path class="st0" d="M151.9,419.1c26.8-98.1,138.5-121.4,241.4-124.3c84.5-2.4,178.8,8.8,178.8,8.8l-44.3,161.9
	c0,0-94.3-11.2-178.8-8.8c-102.8,2.9-214.6,26.2-241.4,124.3L151.9,419.1z"/>
<g>
	<path class="st1" d="M1096.4,339.2L991.7,721.9h88l38.8-141.7h76.4c84.3,0,140.3-46.5,155.4-111.2
		c14.1-60.4-21.1-129.8-115.6-129.8L1096.4,339.2L1096.4,339.2z M1172,384.2h33.8c35.4,0,63.5,28.3,56.7,77.7
		c-6.3,45.7-55.9,73.1-99.2,73.1h-32.6L1172,384.2z M2006.2,458.3c-74,0-127.3,63.6-140.1,127.2c-12.3,61.1,22.7,142.3,119.2,142.3
		c68.6,0,103.1-30.2,103.1-30.2l-15.8-39c0,0-28.8,23.5-69,23.5c-40.2,0-65.4-31.7-59.8-82.2h164
		C2119.5,570.2,2126,458.3,2006.2,458.3L2006.2,458.3z M2005.9,500.6c45.9,0,35.4,60.6,35.4,60.6l-91.9-0.2
		C1949.4,560.9,1964.7,500.6,2005.9,500.6L2005.9,500.6z M1385.5,448.7l-144.6,528.7h84.4l128.2-468.8h87.6l-58.3,213.3h84.4
		l70-255.8h-172c8.8-32.2,18.2-66.6,25.9-94.6c14.1-51.7,37.3-89.3,70.9-88c37.1,1.4,18.2,25.8,13.2,44.4c-7,25.7,12,51.6,45.2,51.6
		c72.3,0,90.1-132.8-45.3-132.8C1439.6,246.6,1404.9,377.7,1385.5,448.7L1385.5,448.7z"/>
	<path class="st1" d="M1669,466.1l-11.6,42.5h107l-168.1,213.3h237.4l11.6-42.5h-120.7l168.1-213.3H1669z M2333.2,461.8
		c-55,0-87.4,56.8-87.4,56.8l14.4-52.5h-84.4l-70,255.8h84.4c0,0,20.3-74.7,30.7-112.1c16-58.3,48.5-94.8,64.2-96.3
		c18.1-1.7,16.4,41.9,51.6,41.9C2390.1,555.3,2401.6,461.8,2333.2,461.8L2333.2,461.8z M793.7,722.5
		c-302.6-18.9-654.2-175-641.8-303.4l-41.7,152.6C97.4,702.8,423.6,858.4,749.4,884.4L793.7,722.5z"/>
	<path class="st1" d="M903.6,512c-26.8,98.1-138.5,121.4-241.4,124.3c-84.5,2.4-178.8-8.8-178.8-8.8l44.3-161.9
		c0,0,94.3,11.2,178.8,8.8c102.8-2.9,214.6-26.2,241.4-124.3L903.6,512z"/>
</g>
<path class="st0" d="M261.8,208.6c302.6,18.9,654.2,175,641.8,303.4l41.7-152.6C958.1,228.3,631.9,72.7,306.1,46.7L261.8,208.6z"/>
<path class="st0" d="M151.9,419.1c26.8-98.1,138.5-121.4,241.4-124.3c84.5-2.4,178.8,8.8,178.8,8.8l-44.3,161.9
	c0,0-94.3-11.2-178.8-8.8c-102.8,2.9-214.6,26.2-241.4,124.3L151.9,419.1z"/>
<path class="st1" d="M793.7,722.5c-302.6-18.9-654.2-175-641.8-303.4l-41.7,152.6C97.4,702.8,423.6,858.4,749.4,884.4L793.7,722.5z"
	/>
<path class="st1" d="M903.6,512c-26.8,98.1-138.5,121.4-241.4,124.3c-84.5,2.4-178.8-8.8-178.8-8.8l44.3-161.9
	c0,0,94.3,11.2,178.8,8.8c102.8-2.9,214.6-26.2,241.4-124.3L903.6,512z"/>
<path class="st0" d="M261.8,208.6c302.6,18.9,654.2,175,641.8,303.4l41.7-152.6C958.1,228.3,631.9,72.7,306.1,46.7L261.8,208.6z"/>
</svg>
