<?xml version="1.0" encoding="utf-8"?>
<!-- Generator: Adobe Illustrator 25.0.0, SVG Export Plug-In . SVG Version: 6.00 Build 0)  -->
<svg version="1.1" id="Layer_1" xmlns="http://www.w3.org/2000/svg" xmlns:xlink="http://www.w3.org/1999/xlink" x="0px" y="0px"
	 viewBox="0 0 2500 2500" style="enable-background:new 0 0 2500 2500;" xml:space="preserve">
<style type="text/css">
	.st0{fill-rule:evenodd;clip-rule:evenodd;fill:#FFFFFF;}
	.st1{fill-rule:evenodd;clip-rule:evenodd;fill:#0382C7;}
</style>
<g>
	<path class="st0" d="M0,0h2500v2500H0V0z"/>
	<path class="st1" d="M166.3,947.9h263.6l28.9,1.2l27.7,2.4l26.5,6l25.3,6l22.9,9.6l21.7,9.6l20.5,12l19.3,13.2l16.9,14.4l16.8,15.6
		l14.4,16.9l13.2,18l10.8,19.3l10.8,19.3l8.4,20.5l7.2,20.5l374.3-240.7l136,91.5L940.1,1191l46.9,31.3l293.7-186.5L1407,1120
		l-290,191.4l49.3,30.1l294.8-187.7V947.9h216.6v410.4h192.6v192.5h-409.2v-197.4l-364.6,234.7l-371.9-251.5l-7.2,21.7l-7.2,20.5
		l-10.8,20.5l-10.8,20.5l-13.2,18l-14.4,18.1l-15.6,16.8l-18,14.4l-18,14.4l-21.7,12l-21.7,10.8l-24.1,9.6l-25.3,7.2l-26.5,4.8
		l-27.7,3.6l-30.1,1.2h-266V947.9z M373.3,1136.9h56.6l25.3,2.4l20.5,7.2l18,10.8l15.6,14.4l10.8,16.8l8.4,18.1l4.8,20.5l1.2,20.5
		l-1.2,20.5l-4.8,20.5l-8.4,18l-12,16.9l-14.4,14.4l-18,10.8l-21.7,7.2l-24.1,2.4h-56.6L373.3,1136.9L373.3,1136.9z M1924.5,947.9
		h217.8v410.4h191.4v192.5h-409.2L1924.5,947.9L1924.5,947.9z"/>
</g>
</svg>
